C:\Users\r0593348\3dpredictsim\Results\batch_windlass\Pog_s1_tmt_bCst_d05_k1500_WL40_ig24_act_TTC_GRF.mot
nRows=22
nColumns=19

name C:\Users\r0593348\3dpredictsim\Results\batch_windlass\Pog_s1_tmt_bCst_d05_k1500_WL40_ig24_act_TTC_GRF.mot
datacolumns 19
datarows 22
range 0.5913547723 0.8397237767
endheader
time 	ground_force_vx	ground_force_vy	ground_force_vz	ground_force_px	ground_force_py	ground_force_pz	1_ground_force_vx	1_ground_force_vy	1_ground_force_vz	1_ground_force_px	1_ground_force_py	1_ground_force_pz	ground_torque_x	ground_torque_y	ground_torque_z	1_ground_torque_x	1_ground_torque_y	1_ground_torque_z
        0.5913547723	       93.5714113798	      411.1397764528	        1.0423774448	        0.3969551561	        0.0000000000	        0.0395482301	      -65.2707695965	       45.2515989585	      -10.3870127850	        0.9082243911	        0.0000000000	       -0.0551834632	        0.0000000000	        0.0000000000	        0.0000000000	        0.0000000000	        0.0000000000	        0.0000000000	
        0.6031818678	       63.1533097946	      309.0153002666	        5.0094872771	        0.4051460251	        0.0000000000	        0.0360492074	     -126.5593057289	      107.6132372421	      -24.9545920415	        0.9199873139	        0.0000000000	       -0.0533227485	        0.0000000000	        0.0000000000	        0.0000000000	        0.0000000000	        0.0000000000	        0.0000000000	
        0.6150089632	       40.2608852145	      216.5840830565	       14.6588983518	        0.4162884970	        0.0000000000	        0.0310687435	     -111.2871735748	      237.6388531093	      -31.9845978677	        0.9287250165	        0.0000000000	       -0.0523881102	        0.0000000000	        0.0000000000	        0.0000000000	        0.0000000000	        0.0000000000	        0.0000000000	
        0.6268360587	       31.1543298975	      173.2099719792	       16.4704881624	        0.4202321542	        0.0000000000	        0.0290477395	      -69.7267444689	      463.0956068757	       -0.4964790168	        0.9365572791	        0.0000000000	       -0.0527807630	        0.0000000000	        0.0000000000	        0.0000000000	        0.0000000000	        0.0000000000	        0.0000000000	
        0.6386631541	       28.0494446149	      132.8159198025	       14.9033485718	        0.4205903956	        0.0000000000	        0.0290306754	      -97.3814307842	      713.4174029495	       16.0999392932	        0.9475130405	        0.0000000000	       -0.0552727461	        0.0000000000	        0.0000000000	        0.0000000000	        0.0000000000	        0.0000000000	        0.0000000000	
        0.6504902496	       19.6750676414	       83.7967057358	       14.8668884935	        0.4209789976	        0.0000000000	        0.0293109211	     -125.1809016440	      841.5421987414	       21.5346465009	        0.9542852841	        0.0000000000	       -0.0567850711	        0.0000000000	        0.0000000000	        0.0000000000	        0.0000000000	        0.0000000000	        0.0000000000	
        0.6623173450	       -0.9390577099	       34.4708306046	        8.2632175846	        0.4192503157	        0.0000000000	        0.0292195997	     -132.7177794752	      871.7463987011	       23.4276984714	        0.9595449095	        0.0000000000	       -0.0576536492	        0.0000000000	        0.0000000000	        0.0000000000	        0.0000000000	        0.0000000000	        0.0000000000	
        0.6741444405	        0.1499469401	       -0.1475171715	       -0.0000915437	        0.0000000000	        0.0000000000	        0.0000000000	     -130.9502503873	      869.3999082361	       22.8241118914	        0.9649615242	        0.0000000000	       -0.0579414863	        0.0000000000	        0.0000000000	        0.0000000000	        0.0000000000	        0.0000000000	        0.0000000000	
        0.6859715359	        0.0009140611	       -0.0007849343	        0.0000247307	        0.0000000000	        0.0000000000	        0.0000000000	     -122.3646174282	      844.9064950358	       19.8077054865	        0.9707355730	        0.0000000000	       -0.0577451805	        0.0000000000	        0.0000000000	        0.0000000000	        0.0000000000	        0.0000000000	        0.0000000000	
        0.6977986313	        0.0000785287	       -0.0000587427	        0.0000034225	        0.0000000000	        0.0000000000	        0.0000000000	     -109.4154527824	      803.9223009816	       19.5694851838	        0.9769036268	        0.0000000000	       -0.0573778524	        0.0000000000	        0.0000000000	        0.0000000000	        0.0000000000	        0.0000000000	        0.0000000000	
        0.7096257268	        0.0000720656	       -0.0000487231	        0.0000032203	        0.0000000000	        0.0000000000	        0.0000000000	      -94.9238171064	      757.9771364142	       18.6684423582	        0.9819582480	        0.0000000000	       -0.0570360331	        0.0000000000	        0.0000000000	        0.0000000000	        0.0000000000	        0.0000000000	        0.0000000000	
        0.7214528222	        0.0007119943	       -0.0004462470	        0.0000305183	        0.0000000000	        0.0000000000	        0.0000000000	      -82.1611806307	      717.2757884406	       18.5272823835	        0.9861721435	        0.0000000000	       -0.0568103162	        0.0000000000	        0.0000000000	        0.0000000000	        0.0000000000	        0.0000000000	        0.0000000000	
        0.7332799177	       -0.0032686768	        0.0019212448	       -0.0001338432	        0.0000000000	        0.0000000000	        0.0000000000	      -70.8764564999	      686.1674985955	       18.9837469959	        0.9898940161	        0.0000000000	       -0.0566816250	        0.0000000000	        0.0000000000	        0.0000000000	        0.0000000000	        0.0000000000	        0.0000000000	
        0.7451070131	       -0.0065425748	        0.0035936877	       -0.0003038642	        0.0000000000	        0.0000000000	        0.0000000000	      -60.1254137731	      660.4019152122	       19.5097338841	        0.9933322799	        0.0000000000	       -0.0566313538	        0.0000000000	        0.0000000000	        0.0000000000	        0.0000000000	        0.0000000000	        0.0000000000	
        0.7569341086	       -0.0035514323	        0.0018394754	       -0.0001771167	        0.0000000000	        0.0000000000	        0.0000000000	      -50.3172932760	      637.6987693108	       19.9101979963	        0.9966971537	        0.0000000000	       -0.0566352456	        0.0000000000	        0.0000000000	        0.0000000000	        0.0000000000	        0.0000000000	        0.0000000000	
        0.7687612040	       -0.0022267462	        0.0010972922	       -0.0001168457	        0.0000000000	        0.0000000000	        0.0000000000	      -41.6660169218	      618.3782890509	       20.4026541845	        1.0001759622	        0.0000000000	       -0.0566612723	        0.0000000000	        0.0000000000	        0.0000000000	        0.0000000000	        0.0000000000	        0.0000000000	
        0.7805882995	       -0.0018534807	        0.0008748490	       -0.0001003048	        0.0000000000	        0.0000000000	        0.0000000000	      -34.0378957665	      602.4401122738	       20.8942954065	        1.0038059331	        0.0000000000	       -0.0566909884	        0.0000000000	        0.0000000000	        0.0000000000	        0.0000000000	        0.0000000000	        0.0000000000	
        0.7924153949	       -0.0021076900	        0.0009578144	       -0.0001155039	        0.0000000000	        0.0000000000	        0.0000000000	      -27.1890961381	      589.9117964141	       21.2118693546	        1.0076031427	        0.0000000000	       -0.0567104258	        0.0000000000	        0.0000000000	        0.0000000000	        0.0000000000	        0.0000000000	        0.0000000000	
        0.8042424904	       -0.0032232746	        0.0014164439	       -0.0001758321	        0.0000000000	        0.0000000000	        0.0000000000	      -21.0588206540	      581.1408743344	       21.5033321148	        1.0117858825	        0.0000000000	       -0.0566858695	        0.0000000000	        0.0000000000	        0.0000000000	        0.0000000000	        0.0000000000	        0.0000000000	
        0.8160695858	       -0.0063206936	        0.0026964583	       -0.0003380753	        0.0000000000	        0.0000000000	        0.0000000000	      -16.7462479932	      576.5663721334	       21.6527706651	        1.0163394067	        0.0000000000	       -0.0565957198	        0.0000000000	        0.0000000000	        0.0000000000	        0.0000000000	        0.0000000000	        0.0000000000	
        0.8278966813	       -0.0146856103	        0.0061035171	       -0.0007613208	        0.0000000000	        0.0000000000	        0.0000000000	      -13.3797855945	      575.5630725148	       21.8352346099	        1.0210915536	        0.0000000000	       -0.0564408152	        0.0000000000	        0.0000000000	        0.0000000000	        0.0000000000	        0.0000000000	        0.0000000000	
        0.8397237767	       -0.0368335375	        0.0149646643	       -0.0018381342	        0.0000000000	        0.0000000000	        0.0000000000	      -10.5850005636	      576.2349908385	       21.8549313058	        1.0259406162	        0.0000000000	       -0.0562321822	        0.0000000000	        0.0000000000	        0.0000000000	        0.0000000000	        0.0000000000	        0.0000000000	
